<?xml version="1.0" ?><svg viewBox="0 0 64 64" xmlns="http://www.w3.org/2000/svg"><g data-name="home workout" id="home_workout"><rect height="32" rx="2" style="fill:none;stroke:#0a1c28;stroke-linejoin:round;stroke-width:2px" width="6" x="15" y="16"/><rect height="22" rx="2" style="fill:none;stroke:#0a1c28;stroke-linejoin:round;stroke-width:2px" width="6" x="9" y="21"/><rect height="14" rx="2" style="fill:none;stroke:#0a1c28;stroke-linejoin:round;stroke-width:2px" width="6" x="3" y="25"/><rect height="32" rx="2" style="fill:none;stroke:#0a1c28;stroke-linejoin:round;stroke-width:2px" transform="translate(92 64) rotate(-180)" width="6" x="43" y="16"/><rect height="22" rx="2" style="fill:none;stroke:#0a1c28;stroke-linejoin:round;stroke-width:2px" transform="translate(104 64) rotate(-180)" width="6" x="49" y="21"/><rect height="14" rx="2" style="fill:none;stroke:#0a1c28;stroke-linejoin:round;stroke-width:2px" transform="translate(116 64) rotate(-180)" width="6" x="55" y="25"/><line style="fill:none;stroke:#0a1c28;stroke-linejoin:round;stroke-width:4px" x1="21" x2="43" y1="32" y2="32"/><path d="M32,16l-5,4h2v4h2V22a1,1,0,0,1,2,0v2h2V20h2Z" style="fill:#0a1c28"/><line style="fill:none;stroke:#0a1c28;stroke-miterlimit:10;stroke-width:2px" x1="27" x2="37" y1="27" y2="27"/></g></svg>